<svg xmlns="http://www.w3.org/2000/svg" data-name="Layer 2" viewBox="0 0 64 64"><path d="M27.33105 17.50977a1.00011 1.00011 0 01-.32421-1.94629L48.92578 8.05371a1.00029 1.00029 0 01.64844 1.89258L27.65527 17.45605A1.01621 1.01621 0 0127.33105 17.50977zM9 23.7998a1.00011 1.00011 0 01-.32422-1.94628l14.00684-4.80664a1.00029 1.00029 0 11.64843 1.89257L9.32422 23.74609A1.01624 1.01624 0 019 23.7998z"/><path d="M25.09961,20.34961a3.29981,3.29981,0,1,1,3.30078-3.29981A3.30378,3.30378,0,0,1,25.09961,20.34961Zm0-4.59961a1.29981,1.29981,0,1,0,1.30078,1.2998A1.30117,1.30117,0,0,0,25.09961,15.75Z"/><path d="M34.2998 27.25a.99943.99943 0 01-1-1V23.36914l-6.87011-4.08008a.99969.99969 0 111.02148-1.71875l7.35938 4.37012a.99831.99831 0 01.48925.85937V26.25A.99942.99942 0 0134.2998 27.25zM55 56H13.59961a.99943.99943 0 01-1-1V42.34961a.97831.97831 0 01.01465-.16895l1.376-8.02734a6.77386 6.77386 0 016.624-5.45312H47.98633A6.76635 6.76635 0 0154.60449 34.126l1.38086 8.05468A.97831.97831 0 0156 42.34961V55A.99943.99943 0 0155 56zM14.59961 54H54V42.43457l-1.36133-7.94336a4.75509 4.75509 0 00-4.65234-3.791H20.61426a4.76239 4.76239 0 00-4.65821 3.81835l-1.35644 7.916z"/><path d="M18.28125 43.34961a1.092 1.092 0 01-.168-.01367 1.00073 1.00073 0 01-.81933-1.15332l1.208-7.12989a2.156 2.156 0 012.11328-1.75293H47.98535a2.14915 2.14915 0 012.1084 1.72754l1.21191 7.15528a1.00036 1.00036 0 11-1.97265.334l-1.207-7.12988a.151.151 0 00-.14063-.08692H20.61523a.14833.14833 0 00-.1455.11231L19.2666 42.5166A1.00034 1.00034 0 0118.28125 43.34961zM37.75 30.7002H30.84961a.999.999 0 01-.94824-1.31641l1.15039-3.4502A.99889.99889 0 0132 25.25h4.59961a.9989.9989 0 01.94824.68359l1.15039 3.4502A.999.999 0 0137.75 30.7002zm-5.5127-2h4.125L35.87891 27.25H32.7207z"/><path d="M40.0498,43.34961a.99943.99943,0,0,1-1-1V35.2998h-9.5v7.04981a1,1,0,0,1-2,0V34.2998a.99943.99943,0,0,1,1-1h11.5a.99942.99942,0,0,1,1,1v8.04981A.99942.99942,0,0,1,40.0498,43.34961Z"/><path d="M50.31641 43.34961H40.0498a1 1 0 110-2H50.31641a1 1 0 110 2zM28.5498 43.34961H18.2832a1 1 0 010-2H28.5498a1 1 0 110 2z"/><path d="M40.0498,55.68652h-11.5a.99942.99942,0,0,1-1-1V42.34961a1,1,0,0,1,2,0V53.68652h9.5V42.34961a1,1,0,0,1,2,0V54.68652A.99942.99942,0,0,1,40.0498,55.68652Z"/><path d="M36.49512,44.5a.99942.99942,0,0,1-1-1V41.2002a1,1,0,0,1,2,0V43.5A.99943.99943,0,0,1,36.49512,44.5Z"/></svg>