<svg xmlns="http://www.w3.org/2000/svg" enable-background="new 0 0 135 135" viewBox="0 0 135 135"><rect width="128" height="3.16" x="3.5" y="111.58" fill="#7a8490"/><rect width="25.072" height="71.511" x="91.876" y="40.073" fill="#86adb7"/><path fill="#44433f" d="M97.8760071 54.3184433V67.648262h13.0781555V54.3184433c0-3.6114311-2.9276428-6.5390739-6.5390701-6.5390739h-.0000153C100.8036499 47.7793694 97.8760071 50.7070122 97.8760071 54.3184433zM97.8760071 83.569725v13.3298187h13.0781555V83.569725c0-3.6114273-2.9276428-6.5390701-6.5390701-6.5390701h-.0000153C100.8036499 77.0306549 97.8760071 79.9582977 97.8760071 83.569725z"/><path fill="#aed3dc" d="M97.1122742 54.3183708c0-4.0266304 3.2761765-7.3024368 7.3031845-7.3024368 4.0262527 0 7.3024292 3.2758064 7.3024292 7.3024368v14.0933876H97.1122742V54.3183708zM110.1908951 54.3183708c0-3.1844711-2.5909653-5.7754402-5.7761841-5.7754402-3.1844711 0-5.775444 2.5909691-5.775444 5.7754402v12.5663948h11.5516281V54.3183708zM97.1122742 83.5698624c0-4.0266266 3.2761765-7.302803 7.3031845-7.302803 4.0262527 0 7.3024292 3.2761765 7.3024292 7.302803v14.0930176H97.1122742V83.5698624zM110.1908951 83.5698624c0-3.1848373-2.5909653-5.7758102-5.7761841-5.7758102-3.1844711 0-5.775444 2.5909729-5.775444 5.7758102v12.5660248h11.5516281V83.5698624z"/><rect width="27.251" height="4.275" x="15.871" y="35.796" fill="#44433f"/><rect width="25.072" height="71.511" x="18.052" y="40.073" fill="#86adb7"/><path fill="#44433f" d="M37.1239929 54.3184433V67.648262H24.0458393V54.3184433c0-3.6114311 2.9276409-6.5390739 6.539072-6.5390739h.0000114C34.1963539 47.7793694 37.1239929 50.7070122 37.1239929 54.3184433zM37.1239929 83.569725v13.3298187H24.0458393V83.569725c0-3.6114273 2.9276409-6.5390701 6.539072-6.5390701h.0000114C34.1963539 77.0306549 37.1239929 79.9582977 37.1239929 83.569725z"/><path fill="#aed3dc" d="M37.8877258 68.4117584H23.2821083V54.3183708c0-4.0266304 3.2761803-7.3024368 7.3024349-7.3024368 4.0270023 0 7.3031826 3.2758064 7.3031826 7.3024368V68.4117584zM24.809103 66.8847656h11.5516262V54.3183708c0-3.1844711-2.5909691-5.7754402-5.7754402-5.7754402-3.185215 0-5.776186 2.5909691-5.776186 5.7754402V66.8847656zM37.8877258 97.6628799H23.2821083V83.5698624c0-4.0266266 3.2761803-7.302803 7.3024349-7.302803 4.0270023 0 7.3031826 3.2761765 7.3031826 7.302803V97.6628799zM24.809103 96.1358871h11.5516262V83.5698624c0-3.1848373-2.5909691-5.7758102-5.7754402-5.7758102-3.185215 0-5.776186 2.5909729-5.776186 5.7758102V96.1358871z"/><rect width="2.655" height="75.784" x="40.467" y="35.796" fill="#2c2c34" opacity=".08"/><polygon fill="#2c2c34" points="43.124 40.073 43.124 67.324 18.052 42.253 18.052 40.073" opacity=".08"/><polygon fill="#2c2c34" points="91.879 40.073 91.879 67.324 116.951 42.253 116.951 40.073" opacity=".08"/><rect width="48.752" height="87.864" x="43.124" y="23.72" fill="#91b5c1"/><rect width="29.731" height="38.969" x="52.635" y="72.611" fill="#4e6263"/><rect width="48.757" height="1.905" x="43.121" y="72.616" fill="#2c2c34" opacity=".08"/><rect width="48.757" height="1.865" x="43.121" y="23.717" fill="#2c2c34" opacity=".08"/><rect width="1.595" height="38.964" x="48.222" y="72.616" fill="#2c2c34" opacity=".08"/><rect width="1.595" height="38.964" x="52.633" y="72.616" fill="#2c2c34" opacity=".08"/><rect width="1.595" height="38.964" x="80.772" y="72.616" fill="#2c2c34" opacity=".08"/><rect width="1.595" height="38.964" x="85.184" y="72.616" fill="#2c2c34" opacity=".08"/><rect width="2.817" height="38.964" x="49.816" y="72.616" fill="#aed3dc"/><rect width="2.817" height="38.964" x="82.367" y="72.616" fill="#aed3dc"/><rect width="52.156" height="3.457" x="41.422" y="20.26" fill="#44433f"/><rect width="27.251" height="4.275" x="91.879" y="35.796" fill="#44433f"/><rect width="25.073" height="2.13" x="18.048" y="40.071" fill="#2c2c34" opacity=".08"/><rect width="25.073" height="2.13" x="91.879" y="40.071" fill="#2c2c34" opacity=".08"/><rect width="2.655" height="75.784" x="91.879" y="35.796" fill="#2c2c34" opacity=".08"/><rect width="54.067" height="9.936" x="40.467" y="62.68" fill="#aed3dc"/><rect width="10.631" height="25.523" x="62.185" y="31.173" fill="#44433f"/><rect width="10.395" height="1.527" x="62.302" y="43.171" fill="#aed3dc"/><path fill="#aed3dc" d="M73.5064545,57.386898H61.4935455V30.4814434h12.0129089V57.386898z M62.8759384,56.0045052h9.2481232
								V31.8638344h-9.2481232V56.0045052z"/><rect width="10.631" height="25.523" x="76.696" y="31.173" fill="#44433f"/><rect width="10.395" height="1.527" x="77.091" y="43.171" fill="#aed3dc"/><path fill="#aed3dc" d="M88.0181503,57.386898H76.0052414V30.4814434h12.0129089V57.386898z M77.3876343,56.0045052h9.2481232
								V31.8638344h-9.2481232V56.0045052z"/><rect width="10.631" height="25.523" x="47.673" y="31.173" fill="#44433f"/><rect width="10.395" height="1.527" x="47.514" y="43.171" fill="#aed3dc"/><path fill="#aed3dc" d="M58.9947586,57.386898H46.9818497V30.4814434h12.0129089V57.386898z M48.3642426,56.0045052h9.2481232
								V31.8638344h-9.2481232V56.0045052z"/><polygon fill="#2c2c34" points="91.876 23.72 91.876 62.678 80.384 62.678 43.124 25.419 43.124 23.72" opacity=".08"/><rect width="12.231" height="27.169" x="55.269" y="84.411" fill="#374747"/><path fill="#91b5c1" d="M57.5597153,97.8980331v-9.6696396c0.5963287-0.5963287,0.9306641-0.9306641,1.5269928-1.5269928
					h4.5958977c0.5963326,0.5963287,0.9306679,0.9306641,1.5269966,1.5269928v9.6696396
					c-0.5963287,0.5963287-0.9306641,0.9306641-1.5269966,1.5269928h-4.5958977
					C58.4903793,98.8286972,58.156044,98.4943619,57.5597153,97.8980331z"/><rect width="12.231" height="27.169" x="67.5" y="84.411" fill="#374747"/><path fill="#91b5c1" d="M69.7905884 97.8980331v-9.6696396c.5963287-.5963287.9306641-.9306641 1.5269928-1.5269928h4.5958939c.5963287.5963287.9306717.9306641 1.5270004 1.5269928v9.6696396c-.5963287.5963287-.9306717.9306641-1.5270004 1.5269928h-4.5958939C70.7212524 98.8286972 70.3869171 98.4943619 69.7905884 97.8980331zM75.9925079 108.450264h-4.7539597l-1.6388397-1.6388321v-3.4659348l1.6388397-1.6388397h4.7539597l1.6388397 1.6388397v3.4659348L75.9925079 108.450264zM71.3966141 108.0685196h4.4378281l1.4151535-1.4151611v-3.1497955l-1.4151535-1.4151535h-4.4378281l-1.4151535 1.4151535v3.1497955L71.3966141 108.0685196zM63.7615318 108.450264h-4.7539635l-1.6388359-1.6388321v-3.4659348l1.6388359-1.6388397h4.7539635l1.6388359 1.6388397v3.4659348L63.7615318 108.450264zM59.165638 108.0685196h4.4378281l1.4151573-1.4151611v-3.1497955l-1.4151573-1.4151535H59.165638l-1.4151573 1.4151535v3.1497955L59.165638 108.0685196z"/><rect width="12.231" height=".519" x="67.5" y="84.411" fill="#aed3dc"/><rect width="12.231" height=".519" x="55.269" y="84.411" fill="#aed3dc"/><rect width=".585" height="27.169" x="67.208" y="84.411" fill="#aed3dc"/><rect width=".585" height="27.169" x="55.269" y="84.411" fill="#aed3dc"/><rect width=".585" height="27.169" x="79.146" y="84.411" fill="#aed3dc"/><path fill="#4e6263" d="M59.6608505 69.417244c.6292686 0 1.1439743-.2490005 1.5434494-.7470016l.8206558.8455353c-.6513176.7333145-1.4185295 1.099884-2.3023148 1.099884-.8837814 0-1.6119156-.2790604-2.183403-.8371887-.572155-.5582886-.8580666-1.2627106-.8580666-2.1137619 0-.8508835.2915878-1.5608139.8744316-2.1301346.5828438-.5689774 1.2952805-.8537216 2.1383133-.8537216.9412346 0 1.7291565.3585587 2.3641052 1.0753403l-.7962723.9029846c-.4051514-.5035172-.9085007-.755188-1.5103836-.755188-.481636 0-.8934669.1573181-1.2354927.4719543-.3420219.3147964-.5130348.7388229-.5130348 1.2723999s.1613274.9617691.4843102 1.2845917C58.8101349 69.2559204 59.2012558 69.417244 59.6608505 69.417244zM63.0349922 70.5500336v-5.7377472h1.2802467v4.5967789h2.4462738v1.1409683H63.0349922zM69.0925446 69.0683746c.2134323.2655334.500679.39814.8620758.39814.3610611 0 .6469727-.1326065.8577271-.39814.2104263-.2653656.3159714-.6279297.3159714-1.0876923v-3.168396h1.2805862v3.2094803c0 .8320084-.2297974 1.4707947-.6897278 1.9166946-.4595947.4460678-1.0477753.6690216-1.7645569.6690216-.7171173 0-1.3066406-.2242889-1.7692413-.6731949-.462265-.4485703-.6933975-1.0861893-.6933975-1.9125214v-3.2094803h1.2805862v3.168396C68.7725677 68.4404449 68.8791122 68.803009 69.0925446 69.0683746zM76.2503204 70.5500336h-2.511734v-5.7377472h2.2325058c.3884506 0 .723793.0464325 1.0056915.1394501.2815704.0931854.4936676.2189407.6359558.377594.2571793.2956009.3857727.6294403.3857727 1.0015182 0 .4487457-.1449585.7825851-.4348755 1.0015259-.0985336.0766525-.1669998.1244125-.2050781.1436234-.038414.0192032-.1068878.0505981-.2054138.0943527.3557129.0766602.6389542.2366486.8497086.4801407.2104263.2436523.3159714.545929.3159714.9071579 0 .3994751-.13694.7523575-.4104919 1.0588074C77.5910263 70.3721695 77.0382462 70.5500336 76.2503204 70.5500336zM75.018837 67.1353073h.6075592c.3557129 0 .6199188-.0382462.7922668-.1148987s.258522-.242157.258522-.496666c0-.2545166-.0794983-.4228516-.2381516-.5048523s-.426857-.123085-.8042908-.123085H75.018837V67.1353073zM75.018837 69.4665146h.8784409c.3664017 0 .6416245-.0452576.8249969-.1354446.1833649-.0903473.2748871-.2680359.2748871-.533577 0-.2653656-.0971985-.4403839-.2912521-.5253906-.194397-.084671-.5050201-.1270905-.9318848-.1270905h-.755188V69.4665146z"/><polygon fill="#2c2c34" points="94.537 111.584 79.432 111.584 40.463 72.615 94.537 72.615" opacity=".08"/><rect width="2.489" height="15.35" x="10.809" y="96.23" fill="#ab5033"/><path fill="#8eae1f" d="M3.5000007,98.1036072c0,2.4785309,1.9942153,4.4855423,4.4728279,4.4855423
						c1.6311502,0,3.0647449-0.8728943,3.8356752-2.1790543c0.7390413,1.2743073,2.1216145,2.1280746,3.7018976,2.1280746
						c2.3827906,0,4.3133841-1.9305573,4.3133841-4.3071289c0-0.5097504-0.0891323-1.0067139-0.2547989-1.4591064
						c0.6435318-0.6562424,1.038641-1.541893,1.038641-2.52948c0-1.6056366-1.0577736-2.9627762-2.5105019-3.4215088
						c-0.1911774-2.5613632-2.3255472-4.5747528-4.9379377-4.5747528c-1.879571,0-3.5107212,1.044899-4.3454294,2.5868378
						c-0.3758202-0.1401901-0.7773075-0.2102661-1.197773-0.2102661c-1.9879928,0-3.5870981,1.5992584-3.5870981,3.5871735
						c0,0.974823,0.3885765,1.8668518,1.019352,2.5103836C4.0988874,95.52948,3.5000007,96.7464676,3.5000007,98.1036072z"/><path fill="#5f8c10" d="M15.0906191 99.3305817c0 .2867126.2293653.5192871.5161314.5192871.2866879 0 .5192413-.2325745.5192413-.5192871 0-.2867203-.2325535-.5160904-.5192413-.5160904C15.3199844 98.8144913 15.0906191 99.0438614 15.0906191 99.3305817zM15.0906191 95.7292023c0 .2867126.2293653.5192871.5161314.5192871.2866879 0 .5192413-.2325745.5192413-.5192871 0-.2867203-.2325535-.5160904-.5192413-.5160904C15.3199844 95.2131119 15.0906191 95.442482 15.0906191 95.7292023zM12.3600655 97.3085022c0 .286705.2293653.5192795.5161314.5192795.2866879 0 .5192423-.2325745.5192423-.5192795 0-.2867279-.2325544-.516098-.5192423-.516098C12.5894308 96.7924042 12.3600655 97.0217743 12.3600655 97.3085022zM11.0184402 93.8983917c0 .286705.2293653.5192795.5161314.5192795.2866879 0 .5192423-.2325745.5192423-.5192795 0-.2867279-.2325544-.516098-.5192423-.516098C11.2478056 93.3822937 11.0184402 93.6116638 11.0184402 93.8983917zM8.1664486 90.8623962c0 .2867126.2293663.5192871.5161314.5192871.2866879 0 .5192432-.2325745.5192432-.5192871 0-.2867203-.2325554-.5160904-.5192432-.5160904C8.3958149 90.3463058 8.1664486 90.575676 8.1664486 90.8623962zM14.0552444 91.1694794c0 .286705.2293663.5192795.5161314.5192795.2866879 0 .5192432-.2325745.5192432-.5192795 0-.2867279-.2325554-.5160904-.5192432-.5160904C14.2846107 90.653389 14.0552444 90.8827515 14.0552444 91.1694794zM5.7624578 92.7624969c0 .286705.2293658.5192795.5161314.5192795.2866879 0 .5192423-.2325745.5192423-.5192795 0-.2867279-.2325544-.5160904-.5192423-.5160904C5.9918237 92.2464066 5.7624578 92.475769 5.7624578 92.7624969zM11.651597 89.5301132c0 .286705.2293663.5192795.5161314.5192795.2866879 0 .5192432-.2325745.5192432-.5192795 0-.2867279-.2325554-.5160904-.5192432-.5160904C11.8809633 89.0140228 11.651597 89.2433853 11.651597 89.5301132zM17.6440544 92.7624969c0 .286705.2293663.5192795.5161324.5192795.2866879 0 .5192432-.2325745.5192432-.5192795 0-.2867279-.2325554-.5160904-.5192432-.5160904C17.8734207 92.2464066 17.6440544 92.475769 17.6440544 92.7624969zM5.5558209 98.208847c0 .286705.2293658.5192795.5161319.5192795.2866879 0 .5192423-.2325745.5192423-.5192795 0-.2867279-.2325544-.516098-.5192423-.516098C5.7851868 97.692749 5.5558209 97.9221191 5.5558209 98.208847zM7.4155493 95.9358444c0 .286705.2293658.5192795.5161319.5192795.2866874 0 .5192428-.2325745.5192428-.5192795 0-.2867279-.2325554-.516098-.5192428-.516098C7.6449151 95.4197464 7.4155493 95.6491165 7.4155493 95.9358444zM9.0096025 99.3305817c0 .2867126.2293653.5192871.5161314.5192871.2866879 0 .5192423-.2325745.5192423-.5192871 0-.2867203-.2325544-.5160904-.5192423-.5160904C9.2389679 98.8144913 9.0096025 99.0438614 9.0096025 99.3305817z"/><rect width="2.489" height="15.35" x="121.702" y="96.23" fill="#ab5033"/><path fill="#8eae1f" d="M114.3923721,98.1036072c0,2.4785309,1.9942169,4.4855423,4.4728317,4.4855423
						c1.6311493,0,3.064743-0.8728943,3.8356705-2.1790543c0.7390442,1.2743073,2.1216125,2.1280746,3.7018967,2.1280746
						c2.3827972,0,4.313385-1.9305573,4.313385-4.3071289c0-0.5097504-0.0891266-1.0067139-0.2547913-1.4591064
						c0.6435242-0.6562424,1.0386353-1.541893,1.0386353-2.52948c0-1.6056366-1.0577698-2.9627762-2.510498-3.4215088
						c-0.1911774-2.5613632-2.3255539-4.5747528-4.9379425-4.5747528c-1.87957,0-3.5107193,1.044899-4.3454285,2.5868378
						c-0.375824-0.1401901-0.7773056-0.2102661-1.1977768-0.2102661c-1.9879913,0-3.5870972,1.5992584-3.5870972,3.5871735
						c0,0.974823,0.3885803,1.8668518,1.0193558,2.5103836C114.9912567,95.52948,114.3923721,96.7464676,114.3923721,98.1036072z"/><path fill="#5f8c10" d="M125.9829865 99.3305817c0 .2867126.2293701.5192871.5161362.5192871.2866898 0 .5192413-.2325745.5192413-.5192871 0-.2867203-.2325516-.5160904-.5192413-.5160904C126.2123566 98.8144913 125.9829865 99.0438614 125.9829865 99.3305817zM125.9829865 95.7292023c0 .2867126.2293701.5192871.5161362.5192871.2866898 0 .5192413-.2325745.5192413-.5192871 0-.2867203-.2325516-.5160904-.5192413-.5160904C126.2123566 95.2131119 125.9829865 95.442482 125.9829865 95.7292023zM123.2524338 97.3085022c0 .286705.2293701.5192795.5161362.5192795.2866898 0 .5192413-.2325745.5192413-.5192795 0-.2867279-.2325516-.516098-.5192413-.516098C123.4818039 96.7924042 123.2524338 97.0217743 123.2524338 97.3085022zM121.9108124 93.8983917c0 .286705.2293625.5192795.5161285.5192795.2866898 0 .5192413-.2325745.5192413-.5192795 0-.2867279-.2325516-.516098-.5192413-.516098C122.1401749 93.3822937 121.9108124 93.6116638 121.9108124 93.8983917zM119.0588226 90.8623962c0 .2867126.2293625.5192871.5161285.5192871.2866898 0 .5192413-.2325745.5192413-.5192871 0-.2867203-.2325516-.5160904-.5192413-.5160904C119.2881851 90.3463058 119.0588226 90.575676 119.0588226 90.8623962zM124.9476166 91.1694794c0 .286705.2293625.5192795.5161285.5192795.2866898 0 .5192413-.2325745.5192413-.5192795 0-.2867279-.2325516-.5160904-.5192413-.5160904C125.1769791 90.653389 124.9476166 90.8827515 124.9476166 91.1694794zM116.6548309 92.7624969c0 .286705.2293625.5192795.5161285.5192795.2866898 0 .5192413-.2325745.5192413-.5192795 0-.2867279-.2325516-.5160904-.5192413-.5160904C116.8841934 92.2464066 116.6548309 92.475769 116.6548309 92.7624969zM122.5439682 89.5301132c0 .286705.2293701.5192795.5161285.5192795.2866898 0 .519249-.2325745.519249-.5192795 0-.2867279-.2325592-.5160904-.519249-.5160904C122.7733383 89.0140228 122.5439682 89.2433853 122.5439682 89.5301132zM128.5364227 92.7624969c0 .286705.2293701.5192795.5161285.5192795.2866974 0 .5192566-.2325745.5192566-.5192795 0-.2867279-.2325592-.5160904-.5192566-.5160904C128.7657928 92.2464066 128.5364227 92.475769 128.5364227 92.7624969zM116.4481964 98.208847c0 .286705.2293625.5192795.5161285.5192795.2866898 0 .5192413-.2325745.5192413-.5192795 0-.2867279-.2325516-.516098-.5192413-.516098C116.6775589 97.692749 116.4481964 97.9221191 116.4481964 98.208847zM118.3079224 95.9358444c0 .286705.2293625.5192795.5161285.5192795.2866898 0 .5192413-.2325745.5192413-.5192795 0-.2867279-.2325516-.516098-.5192413-.516098C118.5372849 95.4197464 118.3079224 95.6491165 118.3079224 95.9358444zM119.9019775 99.3305817c0 .2867126.2293625.5192871.5161285.5192871.2866898 0 .5192413-.2325745.5192413-.5192871 0-.2867203-.2325516-.5160904-.5192413-.5160904C120.13134 98.8144913 119.9019775 99.0438614 119.9019775 99.3305817z"/></svg>