<svg xmlns="http://www.w3.org/2000/svg" xmlns:xlink="http://www.w3.org/1999/xlink" width="48" height="48"><defs><linearGradient id="b" x1="1073.403" x2="1097.116" y1="516.451" y2="544.308" gradientTransform="translate(-1664.872 211.342) scale(1.53785)" gradientUnits="userSpaceOnUse" xlink:href="#a"/><linearGradient id="a"><stop offset="0" stop-color="#16ff6a"/><stop offset="1" stop-color="#0090a5"/></linearGradient></defs><g transform="translate(21 -1004.362)"><rect width="48" height="48" x="-21" y="1004.362" fill="url(#b)" rx="10.144" ry="10.144"/><path fill="#fff" style="line-height:normal;text-indent:0;text-align:start;text-decoration-line:none;text-decoration-style:solid;text-decoration-color:#000;text-transform:none;block-progression:tb;isolation:auto;mix-blend-mode:normal" d="M2.5 1018.369v.986h-15a.5.5 0 0 0-.5.5v17a.5.5 0 0 0 .5.5h15v1h1v-1h15a.5.5 0 0 0 .5-.5v-17a.5.5 0 0 0-.5-.5h-15v-.986h-1zm-14.5 1.986H2.5v.014h1v-.014H18v7.5H3.5v-.486h-1v.486H-12v-7.5zm14.5 1.014v2h1v-2h-1zm0 3v2h1v-2h-1zm-14.5 4.486H2.5v.514h1v-.514H18v7.5h-30v-7.5zm14.5 1.514v2h1v-2h-1zm0 3v2h1v-2h-1z" color="#000" font-family="sans-serif" font-weight="400" overflow="visible"/></g></svg>