<svg xmlns="http://www.w3.org/2000/svg" enable-background="new 0 0 64 64" viewBox="0 0 64 64"><path d="M56.1,51H7.9c-0.5,0-0.9-0.3-0.9-0.8c-0.4-1.7-0.5-3.5-0.5-5.3c0-14.1,11.5-25.6,25.6-25.6c14.1,0,25.6,11.5,25.6,25.6
			c0,1.8-0.2,3.5-0.5,5.3C56.9,50.7,56.5,51,56.1,51z M8.7,49.1h46.6c0.2-1.4,0.4-2.7,0.4-4.1c0-13-10.6-23.6-23.6-23.6
			C19,21.3,8.4,31.9,8.4,45C8.4,46.4,8.5,47.7,8.7,49.1z"/><path d="M62.6,51c-0.1,0-0.1,0-0.2,0c-0.5-0.1-0.9-0.6-0.8-1.1c0.3-1.6,0.4-3.3,0.4-4.9c0-16.6-13.5-30.1-30.1-30.1
			C15.4,14.9,1.9,28.4,1.9,45c0,1.6,0.1,3.3,0.4,4.9c0.1,0.5-0.3,1-0.8,1.1c-0.5,0.1-1-0.3-1.1-0.8C0.1,48.5,0,46.7,0,45
			c0-17.6,14.4-32,32-32c17.6,0,32,14.4,32,32c0,1.7-0.1,3.5-0.4,5.2C63.5,50.7,63.1,51,62.6,51z"/><path d="M38.4,51c-0.5,0-1-0.4-1-1V38.4c0-3-2.4-5.4-5.4-5.4c-3,0-5.4,2.4-5.4,5.4V50c0,0.5-0.4,1-1,1c-0.5,0-1-0.4-1-1V38.4
			c0-4.1,3.3-7.4,7.4-7.4c4.1,0,7.4,3.3,7.4,7.4V50C39.4,50.6,38.9,51,38.4,51z"/></svg>