<svg xmlns="http://www.w3.org/2000/svg" enable-background="new 0 0 64 64" viewBox="0 0 64 64"><path d="M59.86,13.24c-0.05-0.04-0.08-0.09-0.13-0.12c-0.02-0.01-0.04-0.01-0.07-0.02C54.18,9.21,43.96,6.64,32,6.64
		c-11.55,0-21.48,2.4-27.09,6.08c-0.03,0.01-0.06,0.01-0.09,0.03L4.76,12.8C1.74,14.82,0,17.22,0,19.81v24.39
		c0,7.38,14.06,13.17,32,13.17c17.94,0,32-5.79,32-13.17V19.81C64,17.4,62.5,15.16,59.86,13.24z M57.94,14.23l-4.24,6.98
		c-3.15-0.86-7.09-1.52-11.51-1.93l2.76-9.56C50.35,10.71,54.88,12.29,57.94,14.23z M12.34,22.71c2.98-0.7,6.69-1.26,10.98-1.6
		l1.89,6.04c-2.8,0.4-5.74,1.04-8.78,1.97L12.34,22.71z M13.87,28.68c-3.35-0.96-6.16-2.17-8.2-3.55c1.07-0.67,2.66-1.32,4.7-1.91
		L13.87,28.68z M45.57,29.77c-4.1,0.8-8.72,1.26-13.57,1.26c-4.16,0-8.15-0.34-11.79-0.94C31.12,27.46,40.59,28.7,45.57,29.77z
		 M25.31,20.97c2.11-0.13,4.34-0.19,6.69-0.19c2.72,0,5.28,0.09,7.67,0.25l-1.65,5.67c-3.17-0.23-6.85-0.24-10.86,0.19L25.31,20.97z
		 M39.99,26.88l1.65-5.7c4.37,0.39,8.09,1.02,11.01,1.77l-3.47,5.73C47.77,28.25,44.51,27.37,39.99,26.88z M54.58,23.5
		c1.6,0.51,2.85,1.07,3.75,1.63c-1.71,1.15-3.96,2.18-6.58,3.05L54.58,23.5z M32,8.58c3.87,0,7.59,0.3,11.03,0.82l-2.81,9.73
		c-2.61-0.18-5.36-0.29-8.21-0.29c-2.51,0-4.96,0.08-7.29,0.22l-3.05-9.76C24.89,8.84,28.38,8.58,32,8.58z M19.71,9.6l3.01,9.6
		c-4.36,0.36-8.27,0.96-11.49,1.76l-4.55-7.12C9.84,12.01,14.38,10.53,19.71,9.6z M5.06,14.92l4.22,6.59
		c-2.23,0.68-4.01,1.46-5.23,2.35c-1.36-1.26-2.11-2.63-2.11-4.05C1.94,18.06,3.07,16.4,5.06,14.92z M41.22,54.85
		c-2.92,0.37-6.02,0.57-9.22,0.57c-3.27,0-6.44-0.21-9.42-0.59V41.91h18.64V54.85z M62.06,44.19c0,4.63-7.94,8.7-18.9,10.39V40.94
		c0-0.54-0.44-0.97-0.97-0.97H21.61c-0.53,0-0.97,0.43-0.97,0.97v13.61C9.78,52.84,1.94,48.79,1.94,44.19V24.4
		c0.4,0.46,0.85,0.89,1.36,1.31c0.02,0.03,0.03,0.05,0.05,0.08c0.08,0.09,0.18,0.15,0.28,0.19c5.3,4.19,15.89,6.99,28.37,6.99
		c12.5,0,23.11-2.81,28.4-7.01c0.09-0.05,0.17-0.1,0.24-0.17c0.02-0.02,0.03-0.04,0.04-0.06c0.51-0.43,0.98-0.87,1.38-1.33V44.19z
		 M59.94,23.86c-1.04-0.76-2.5-1.44-4.32-2.07l3.89-6.43c1.63,1.38,2.55,2.88,2.55,4.44C62.06,21.23,61.3,22.6,59.94,23.86z"/><path fill="#71bfea" d="M58.34 25.13c-1.71 1.15-3.96 2.18-6.58 3.05l2.83-4.68C56.18 24.01 57.44 24.57 58.34 25.13zM13.87 28.68c-3.35-.96-6.16-2.17-8.2-3.55 1.07-.67 2.66-1.32 4.7-1.91L13.87 28.68zM9.28 21.51c-2.23.68-4.01 1.46-5.23 2.35-1.36-1.26-2.11-2.63-2.11-4.05 0-1.75 1.13-3.4 3.12-4.89L9.28 21.51z"/><path fill="#fbc551" d="M23.63 26.64c-2.11.3-4.33.78-6.61 1.48l-3.08-4.83c2.24-.53 5.04-.95 8.27-1.21L23.63 26.64zM37.34 21.94l-1.11 3.83c-2.14-.16-4.62-.16-7.33.13l-1.25-4c1.43-.08 2.93-.13 4.52-.13C33.99 21.77 35.72 21.83 37.34 21.94zM50.68 23.57l-2.39 3.95c-.97-.3-3.22-.91-6.33-1.24l1.14-3.93C46.11 22.62 48.67 23.05 50.68 23.57z"/><path fill="#71bfea" d="M62.06 19.81c0 1.43-.76 2.79-2.12 4.05-1.04-.76-2.5-1.44-4.32-2.07l3.89-6.43C61.14 16.74 62.06 18.24 62.06 19.81zM55.88 14.55l-3.13 5.16c-2.33-.64-5.24-1.12-8.51-1.43l2.04-7.06C50.27 11.95 53.63 13.12 55.88 14.55zM20.52 18.13c-3.17.26-6 .7-8.34 1.28l-3.3-5.16c2.29-1.34 5.59-2.41 9.46-3.08L20.52 18.13z"/><path fill="#fbc551" d="M40.1,10.62l-2.04,7.06c-1.89-0.13-3.89-0.21-5.96-0.21c-1.82,0-3.6,0.06-5.29,0.16l-2.22-7.09
		c2.35-0.33,4.89-0.52,7.51-0.52C34.9,10.02,37.6,10.24,40.1,10.62z"/><path fill="#e9e8e8" d="M60.68,25.73c-0.01,0.02-0.02,0.04-0.04,0.06c-0.07,0.08-0.16,0.13-0.24,0.17c-5.29,4.2-15.9,7.01-28.4,7.01
		c-12.48,0-23.07-2.8-28.37-6.99c-0.1-0.05-0.2-0.11-0.28-0.19c-0.02-0.03-0.03-0.05-0.05-0.08c-0.5-0.42-0.96-0.85-1.36-1.31v19.79
		c0,4.6,7.84,8.65,18.71,10.36V40.94c0-0.54,0.44-0.97,0.97-0.97h20.58c0.53,0,0.97,0.43,0.97,0.97v13.64
		c10.96-1.69,18.9-5.76,18.9-10.39V24.4C61.66,24.86,61.2,25.3,60.68,25.73z M8.54,45.28c0,0.54-0.44,0.97-0.97,0.97
		c-0.53,0-0.97-0.43-0.97-0.97V33.6c0-0.53,0.44-0.97,0.97-0.97c0.53,0,0.97,0.44,0.97,0.97V45.28z M15.41,47.68
		c0,0.53-0.43,0.97-0.97,0.97c-0.53,0-0.97-0.44-0.97-0.97V36.01c0-0.53,0.44-0.97,0.97-0.97c0.54,0,0.97,0.44,0.97,0.97V47.68z
		 M51.29,47.68c0,0.53-0.43,0.97-0.97,0.97c-0.53,0-0.97-0.44-0.97-0.97V36.01c0-0.53,0.44-0.97,0.97-0.97
		c0.54,0,0.97,0.44,0.97,0.97V47.68z M58.16,45.28c0,0.54-0.44,0.97-0.97,0.97c-0.53,0-0.97-0.43-0.97-0.97V33.6
		c0-0.53,0.44-0.97,0.97-0.97c0.53,0,0.97,0.44,0.97,0.97V45.28z"/><path fill="#fbc551" d="M36.59,45.26v6.51c-1.47,0.19-3.03,0.29-4.64,0.29c-1.64,0-3.24-0.11-4.74-0.3v-6.5H36.59z"/><path d="M51.29 36.01v11.68c0 .53-.43.97-.97.97-.53 0-.97-.44-.97-.97V36.01c0-.53.44-.97.97-.97C50.86 35.04 51.29 35.48 51.29 36.01zM58.16 33.6v11.68c0 .54-.44.97-.97.97-.53 0-.97-.43-.97-.97V33.6c0-.53.44-.97.97-.97C57.73 32.64 58.16 33.07 58.16 33.6zM15.41 36.01v11.68c0 .53-.43.97-.97.97-.53 0-.97-.44-.97-.97V36.01c0-.53.44-.97.97-.97C14.98 35.04 15.41 35.48 15.41 36.01zM8.54 33.6v11.68c0 .54-.44.97-.97.97-.53 0-.97-.43-.97-.97V33.6c0-.53.44-.97.97-.97C8.11 32.64 8.54 33.07 8.54 33.6z"/></svg>