<svg xmlns="http://www.w3.org/2000/svg" viewBox="0 0 64 64"><path fill="#ffda44" d="M46,4c3.31,0,6,5.37,6,12H40C40,9.37,42.69,4,46,4Z"/><path fill="#ff9811" d="M46,4c1.1,0,2,5.37,2,12H44C44,9.37,44.9,4,46,4Z"/><path fill="#1a6fb0" d="M58,16H52c0-6.63-2.69-12-6-12A12,12,0,0,1,58,16Z"/><path fill="#d80027" d="M46,4c-3.31,0-6,5.37-6,12H34A12,12,0,0,1,46,4Z"/><path fill="#bddbff" d="M61,32v7.54c-2.41,0-2.41-1.16-4.83-1.16s-2.41,1.16-4.83,1.16-2.41-1.16-4.83-1.16-2.41,1.16-4.83,1.16-2.42-1.16-4.83-1.16-2.42,1.16-4.84,1.16-2.41-1.16-4.83-1.16-2.41,1.16-4.83,1.16-2.42-1.16-4.83-1.16-2.42,1.16-4.84,1.16-2.42-1.16-4.84-1.16S5.42,39.54,3,39.54V32Z"/><path fill="#57a4ff" d="M61,39.54v9.62c-4.15,0-4.15-2.32-8.29-2.32s-4.15,2.32-8.29,2.32-4.14-2.32-8.28-2.32-4.15,2.32-8.29,2.32-4.14-2.32-8.29-2.32-4.14,2.32-8.28,2.32S7.14,46.84,3,46.84v-7.3c2.42,0,2.42-1.16,4.84-1.16s2.42,1.16,4.84,1.16,2.42-1.16,4.84-1.16,2.41,1.16,4.83,1.16,2.42-1.16,4.83-1.16,2.42,1.16,4.83,1.16,2.42-1.16,4.84-1.16,2.41,1.16,4.83,1.16,2.42-1.16,4.83-1.16,2.42,1.16,4.83,1.16,2.42-1.16,4.83-1.16S58.59,39.54,61,39.54Z"/><path fill="#2488ff" d="M61,49.16v8.02c-3.23,0-3.23-2.32-6.45-2.32s-3.23,2.32-6.45,2.32-3.22-2.32-6.45-2.32-3.22,2.32-6.44,2.32-3.22-2.32-6.44-2.32-3.22,2.32-6.45,2.32-3.22-2.32-6.44-2.32-3.22,2.32-6.44,2.32S6.22,54.86,3,54.86V46.84c4.14,0,4.14,2.32,8.28,2.32s4.14-2.32,8.28-2.32,4.15,2.32,8.29,2.32,4.14-2.32,8.29-2.32,4.14,2.32,8.28,2.32,4.14-2.32,8.29-2.32S56.85,49.16,61,49.16Z"/><path fill="#005ece" d="M61,57.18V61H3V54.86c3.22,0,3.22,2.32,6.44,2.32s3.22-2.32,6.44-2.32,3.22,2.32,6.44,2.32,3.23-2.32,6.45-2.32,3.22,2.32,6.44,2.32,3.22-2.32,6.44-2.32,3.23,2.32,6.45,2.32,3.22-2.32,6.45-2.32S57.77,57.18,61,57.18Z"/><path d="M61,31H47V17H58a1,1,0,0,0,1-1A13.008,13.008,0,0,0,47,3.05V2H45V3.05A13.008,13.008,0,0,0,33,16a1,1,0,0,0,1,1H45V31H25V23.5a1.5,1.5,0,0,1,3,0V25h2V23.5a3.5,3.5,0,0,0-7,0V27H14V23.5a1.5,1.5,0,0,1,3,0V25h2V23.5a3.5,3.5,0,0,0-7,0V31H3a1,1,0,0,0-1,1V61a1,1,0,0,0,1,1H61a1,1,0,0,0,1-1V32A1,1,0,0,0,61,31ZM56.96,15H52.97A18.181,18.181,0,0,0,50.5,5.98,11.012,11.012,0,0,1,56.96,15ZM35.04,15A11.012,11.012,0,0,1,41.5,5.98,18.181,18.181,0,0,0,39.03,15Zm5.98,0c.22-5.07,2.05-8.75,3.98-9.73V13h2V5.27c1.93.98,3.76,4.66,3.98,9.73ZM14,29h9v2H14Zm0,4h9v2H14Zm0,4h9v2H14Zm0,4h9v1H14ZM60,60H4V56.18a5.213,5.213,0,0,1,1.72.69A6.707,6.707,0,0,0,9.43,57.9a6.7,6.7,0,0,0,3.7-1.03,4.73,4.73,0,0,1,2.72-.77,4.74,4.74,0,0,1,2.73.77,6.668,6.668,0,0,0,3.7,1.03,6.668,6.668,0,0,0,3.7-1.03,5.207,5.207,0,0,1,5.45,0,7.179,7.179,0,0,0,7.41,0,5.207,5.207,0,0,1,5.45,0A6.734,6.734,0,0,0,48,57.9v-2a4.74,4.74,0,0,1-2.73-.77,7.179,7.179,0,0,0-7.41,0,5.207,5.207,0,0,1-5.45,0,7.179,7.179,0,0,0-7.41,0,4.73,4.73,0,0,1-2.72.77,4.74,4.74,0,0,1-2.73-.77,6.668,6.668,0,0,0-3.7-1.03,6.668,6.668,0,0,0-3.7,1.03,4.73,4.73,0,0,1-2.72.77,4.74,4.74,0,0,1-2.73-.77A6.805,6.805,0,0,0,4,54.16V47.9a6.486,6.486,0,0,1,2.65.97,8.3,8.3,0,0,0,4.63,1.29,8.3,8.3,0,0,0,4.63-1.29,6.419,6.419,0,0,1,3.65-1.03,6.455,6.455,0,0,1,3.66,1.03,8.277,8.277,0,0,0,4.63,1.29,8.3,8.3,0,0,0,4.63-1.29,7,7,0,0,1,7.31,0,8.954,8.954,0,0,0,9.26,0,7.018,7.018,0,0,1,7.32,0A8.346,8.346,0,0,0,60,50.11Zm0-21.45a4.419,4.419,0,0,1-.94-.42,5.668,5.668,0,0,0-5.84,0,3.364,3.364,0,0,1-1.94.55,3.4,3.4,0,0,1-1.95-.55,5.65,5.65,0,0,0-5.83,0,3.679,3.679,0,0,1-3.87,0,5.668,5.668,0,0,0-5.84,0,3.679,3.679,0,0,1-3.87,0A5.332,5.332,0,0,0,27,37.32v2a3.364,3.364,0,0,1,1.94.55,5.65,5.65,0,0,0,5.83,0,3.7,3.7,0,0,1,3.88,0,5.65,5.65,0,0,0,5.83,0,3.7,3.7,0,0,1,3.88,0,5.3,5.3,0,0,0,2.92.81,5.36,5.36,0,0,0,2.92-.81,3.7,3.7,0,0,1,3.88,0A5.384,5.384,0,0,0,60,40.6v7.5a6.589,6.589,0,0,1-2.66-.97,8.954,8.954,0,0,0-9.26,0,7,7,0,0,1-7.31,0,8.3,8.3,0,0,0-4.63-1.29,8.315,8.315,0,0,0-4.64,1.29,6.419,6.419,0,0,1-3.65,1.03,6.455,6.455,0,0,1-3.66-1.03,8.25,8.25,0,0,0-4.63-1.29,8.3,8.3,0,0,0-4.63,1.29,6.394,6.394,0,0,1-3.65,1.03,6.419,6.419,0,0,1-3.65-1.03A8.346,8.346,0,0,0,4,45.89V33h8V43a1,1,0,0,0,1,1H24a1,1,0,0,0,1-1V33H60Z"/></svg>