<svg xmlns="http://www.w3.org/2000/svg" data-name="Layer 1" viewBox="0 0 512 512"><polygon fill="#00efd1" points="451.47 19.05 451.47 492.95 411.77 492.95 411.77 70 411.77 40 411.77 19.05 451.47 19.05"/><polygon fill="#00acea" points="411.77 40 411.77 70 410 70 256 70 100.23 70 100.23 40 410 40 411.77 40"/><polygon fill="#00efd1" points="100.23 70 100.23 492.95 60.53 492.95 60.53 19.05 100.23 19.05 100.23 40 100.23 70"/><rect width="16" height="151" x="248" y="70" fill="#f4b844"/><path fill="#fedb41" d="M256,219.18A84.82,84.82,0,1,1,171.18,304,84.813,84.813,0,0,1,256,219.18ZM310.34,304A54.34,54.34,0,1,0,256,358.34,54.341,54.341,0,0,0,310.34,304Z"/></svg>