<?xml version="1.0" standalone="no"?>
<!DOCTYPE svg PUBLIC "-//W3C//DTD SVG 20010904//EN"
 "http://www.w3.org/TR/2001/REC-SVG-20010904/DTD/svg10.dtd">
<svg version="1.0" xmlns="http://www.w3.org/2000/svg"
 width="222.000000pt" height="72.000000pt" viewBox="0 0 222.000000 72.000000"
 preserveAspectRatio="xMidYMid meet">

<g transform="translate(0.000000,72.000000) scale(0.100000,-0.100000)"
fill="#000000" stroke="none">
<path d="M0 360 l0 -360 1110 0 1110 0 0 360 0 360 -1110 0 -1110 0 0 -360z
m1240 290 c23 -12 40 -23 38 -26 -3 -2 -19 3 -37 12 -37 19 -75 12 -49 -9 8
-6 18 -20 21 -29 11 -32 -20 -18 -39 17 -13 24 -44 32 -44 12 0 -23 -31 -30
-46 -10 -7 10 -14 24 -14 31 0 13 -22 17 -33 5 -4 -3 -2 -12 4 -20 9 -10 7
-19 -5 -38 -22 -33 -27 -32 -20 5 6 25 3 30 -21 36 -15 4 -31 2 -38 -5 -6 -6
-16 -11 -21 -11 -19 0 36 33 78 46 58 20 172 11 226 -16z m-305 -121 c4 -6 -2
-13 -14 -16 -12 -3 -21 -9 -21 -14 0 -5 -4 -9 -10 -9 -5 0 -10 11 -10 25 0 20
5 25 24 25 14 0 28 -5 31 -11z m60 -11 l8 -23 4 23 c2 12 9 22 14 22 21 0 4
-45 -17 -48 -16 -2 -23 3 -26 22 -6 32 7 34 17 4z m135 -4 c0 -22 -2 -25 -15
-14 -12 10 -18 10 -30 0 -13 -11 -15 -8 -15 14 0 22 4 26 30 26 26 0 30 -4 30
-26z m64 14 c5 -10 7 -10 12 0 3 6 10 12 15 12 5 0 3 -11 -3 -25 -6 -14 -14
-25 -18 -25 -4 0 -12 11 -18 25 -6 14 -8 25 -3 25 5 0 12 -6 15 -12z m104 -9
c15 -24 8 -39 -10 -21 -8 8 -15 9 -25 1 -16 -14 -17 -5 -3 22 14 24 22 24 38
-2z m-1005 -136 c17 -37 22 -59 15 -62 -6 -2 -15 4 -20 13 -12 21 -54 21 -67
-1 -5 -10 -12 -15 -16 -12 -10 10 35 119 49 119 7 0 25 -26 39 -57z m187 47
c0 -5 -9 -10 -20 -10 -17 0 -20 -7 -20 -50 0 -38 -4 -50 -15 -50 -11 0 -15 12
-15 50 0 47 -2 50 -25 50 -14 0 -25 5 -25 10 0 6 27 10 60 10 33 0 60 -4 60
-10z m107 -20 c6 -16 18 -30 26 -30 8 0 20 14 27 30 21 52 40 38 40 -30 0 -68
-20 -84 -21 -17 l-1 42 -15 -35 c-22 -52 -36 -55 -55 -12 l-17 37 0 -37 c-1
-61 -19 -43 -23 22 -2 49 0 60 12 60 9 0 21 -13 27 -30z m271 14 c50 -35 15
-104 -53 -104 -17 0 -36 5 -43 12 -19 19 -15 85 6 97 25 15 64 13 90 -5z m174
1 c-1 -5 -15 -8 -31 -7 -45 5 -46 -15 -1 -22 43 -7 61 -36 39 -62 -14 -18 -90
-16 -96 3 -3 8 8 10 36 6 34 -5 41 -3 41 11 0 10 -8 16 -21 16 -48 0 -73 32
-47 58 15 15 84 12 80 -3z m196 -9 c5 -23 -23 -46 -55 -46 -18 0 -23 -6 -23
-25 0 -16 -6 -25 -15 -25 -11 0 -15 13 -15 53 0 30 3 57 7 61 4 4 28 6 53 4
35 -2 46 -7 48 -22z m92 -1 c0 -22 4 -25 40 -25 36 0 40 3 40 25 0 14 5 25 10
25 6 0 10 -27 10 -60 0 -60 -16 -84 -22 -32 -3 24 -7 27 -38 26 -30 0 -35 -4
-38 -27 -6 -51 -22 -27 -22 33 0 33 4 60 10 60 6 0 10 -11 10 -25z m270 15 c0
-5 -16 -10 -35 -10 -26 0 -35 -4 -35 -16 0 -12 7 -15 25 -12 16 3 25 1 25 -7
0 -8 -9 -10 -25 -7 -20 3 -25 0 -25 -17 0 -18 6 -21 45 -21 25 0 45 -4 45 -10
0 -6 -26 -10 -57 -10 l-58 0 0 60 0 60 48 0 c26 0 47 -4 47 -10z m188 -22 c2
-17 -2 -28 -8 -28 -7 0 -9 -7 -6 -15 3 -8 9 -22 12 -30 11 -26 -16 -16 -28 10
-6 14 -19 25 -30 25 -13 0 -18 -7 -18 -25 0 -14 -4 -25 -10 -25 -6 0 -10 27
-10 61 l0 60 48 -3 c43 -3 47 -5 50 -30z m182 22 c0 -5 -16 -10 -35 -10 -26 0
-35 -4 -35 -16 0 -12 7 -15 25 -12 17 4 25 1 25 -8 0 -8 -9 -13 -22 -11 -14 1
-23 -4 -26 -15 -3 -15 4 -18 37 -18 23 0 41 -4 41 -10 0 -5 -24 -10 -52 -10
l-53 0 0 60 0 60 48 0 c26 0 47 -4 47 -10z m-767 -207 c-62 -2 -165 -2 -230 0
-65 1 -14 3 112 3 127 0 180 -2 118 -3z m-620 -153 c-3 -11 -9 -20 -13 -20 -4
0 -10 9 -13 20 -4 15 0 20 13 20 13 0 17 -5 13 -20z m55 8 c10 -10 15 -10 22
2 8 12 10 11 10 -5 0 -28 -55 -33 -57 -4 -2 22 8 24 25 7z m95 -8 c-7 -26 -33
-26 -33 0 0 13 7 20 19 20 14 0 18 -5 14 -20z m107 10 c0 -5 -7 -7 -15 -4 -8
4 -15 1 -15 -4 0 -6 8 -13 18 -15 13 -4 11 -5 -5 -6 -22 -1 -31 18 -16 32 10
10 33 8 33 -3z m74 -1 c14 12 16 11 16 -7 0 -15 -6 -20 -25 -18 -18 1 -25 7
-25 21 0 16 2 17 9 6 8 -12 12 -12 25 -2z m84 -12 c3 -12 -3 -17 -22 -17 -25
0 -35 18 -19 34 12 12 38 2 41 -17z m62 3 c0 -23 -25 -27 -33 -6 -7 16 1 26
20 26 7 0 13 -9 13 -20z m75 10 c-4 -6 -11 -8 -16 -5 -5 4 -9 2 -9 -4 0 -5 8
-12 18 -14 10 -3 6 -5 -10 -6 -22 -1 -28 4 -28 19 0 15 7 20 26 20 14 0 23 -4
19 -10z m75 -20 c0 -3 -9 -6 -20 -6 -13 0 -20 7 -20 18 0 16 3 16 20 6 11 -7
20 -15 20 -18z m92 21 c8 11 11 11 15 1 4 -9 8 -10 18 -2 11 9 12 7 8 -9 -7
-26 -57 -22 -60 5 -2 12 0 14 3 5 5 -11 8 -11 16 0z m117 -4 c13 -16 5 -27
-20 -27 -21 0 -33 15 -24 30 9 14 31 12 44 -3z m69 -9 c2 -12 -3 -16 -17 -15
-13 1 -21 8 -21 20 0 23 33 19 38 -5z m60 -11 c12 -3 10 -5 -5 -6 -18 -1 -23
4 -22 22 1 15 3 17 6 5 2 -9 12 -19 21 -21z m85 19 c7 -19 -1 -26 -30 -26 -16
0 -23 6 -23 20 0 14 7 20 24 20 13 0 26 -6 29 -14z"/>
<path d="M246 394 c-9 -22 -8 -24 9 -24 8 0 15 6 15 14 0 22 -17 28 -24 10z"/>
<path d="M774 406 c-3 -8 -4 -25 -2 -38 2 -18 10 -24 35 -26 28 -3 33 1 39 23
4 15 1 31 -6 40 -16 19 -59 19 -66 1z"/>
<path d="M1150 404 c0 -11 8 -14 27 -12 39 4 42 28 4 28 -21 0 -31 -5 -31 -16z"/>
<path d="M1700 405 c0 -10 10 -15 30 -15 20 0 30 5 30 15 0 10 -10 15 -30 15
-20 0 -30 -5 -30 -15z"/>
<path d="M960 70 c0 -5 5 -10 11 -10 5 0 7 5 4 10 -3 6 -8 10 -11 10 -2 0 -4
-4 -4 -10z"/>
<path d="M1380 70 c0 -5 5 -10 10 -10 6 0 10 5 10 10 0 6 -4 10 -10 10 -5 0
-10 -4 -10 -10z"/>
<path d="M1580 70 c0 -5 7 -10 16 -10 8 0 12 5 9 10 -3 6 -10 10 -16 10 -5 0
-9 -4 -9 -10z"/>
</g>
</svg>
